<?xml version="1.0" encoding="UTF-8" standalone="no"?>
<!-- Generator: Adobe Illustrator 12.0.0, SVG Export Plug-In . SVG Version: 6.00 Build 51448)  -->

<svg
   xmlns:dc="http://purl.org/dc/elements/1.1/"
   xmlns:cc="http://creativecommons.org/ns#"
   xmlns:rdf="http://www.w3.org/1999/02/22-rdf-syntax-ns#"
   xmlns:svg="http://www.w3.org/2000/svg"
   xmlns="http://www.w3.org/2000/svg"
   xmlns:sodipodi="http://sodipodi.sourceforge.net/DTD/sodipodi-0.dtd"
   xmlns:inkscape="http://www.inkscape.org/namespaces/inkscape"
   version="1.1"
   id="Layer_1"
   width="1243.9221"
   height="1239.9014"
   viewBox="0 0 1243.9221 1239.9013"
   overflow="visible"
   enable-background="new 0 0 339.917 556.552"
   xml:space="preserve"
   inkscape:version="0.92.2 (5c3e80d, 2017-08-06)"
   sodipodi:docname="Emblem_of_Barcelona_(1996-2004).svg"
   style="overflow:visible"><metadata
     id="metadata129"><rdf:RDF><cc:Work
         rdf:about=""><dc:format>image/svg+xml</dc:format><dc:type
           rdf:resource="http://purl.org/dc/dcmitype/StillImage" /><dc:title></dc:title></cc:Work></rdf:RDF></metadata><defs
     id="defs127" /><sodipodi:namedview
     pagecolor="#ffffff"
     bordercolor="#666666"
     borderopacity="1"
     objecttolerance="10"
     gridtolerance="10"
     guidetolerance="10"
     inkscape:pageopacity="0"
     inkscape:pageshadow="2"
     inkscape:window-width="1920"
     inkscape:window-height="1017"
     id="namedview125"
     showgrid="false"
     showguides="true"
     inkscape:guide-bbox="true"
     inkscape:zoom="0.5"
     inkscape:cx="588.44921"
     inkscape:cy="662.15783"
     inkscape:window-x="-8"
     inkscape:window-y="-8"
     inkscape:window-maximized="1"
     inkscape:current-layer="g5124"
     fit-margin-top="0"
     fit-margin-left="0"
     fit-margin-right="0"
     fit-margin-bottom="0" /><g
     id="g5124"
     transform="matrix(2.1714514,0,0,2.1714514,-141.87627,-845.15643)"><g
       id="g3681"
       transform="matrix(1.4150051,0,0,1.4207442,1267.1199,426.19686)"><path
         inkscape:connector-curvature="0"
         id="path68"
         transform="translate(-1021.4685,-74.661039)"
         d="m 375.46875,57.375 c 27.46302,107.25647 97.88283,164.097 192.9375,192.0625 0,-4e-5 -63.63528,-102.47115 -192.9375,-192.0625 z m -0.9375,0.03125 c 0,0 -102.95451,63.31569 -192.9375,192 107.49448,-27.78361 166.08654,-96.57918 192.9375,-192 z m 193.875,193.15625 C 462.78773,282.74984 420.32635,363.60091 375.46875,442.625 504.77097,353.07207 568.40625,250.5625 568.40625,250.5625 Z m -386.8125,0.0625 c 0,-4e-5 63.63521,102.34619 192.9375,191.9375 C 348.20881,351.72133 283.43576,288.08115 181.59375,250.625 Z"
         style="font-size:8px;letter-spacing:0.60000002;word-spacing:0;fill:#ce0f25;fill-opacity:1;fill-rule:evenodd;stroke:none" /><path
         inkscape:connector-curvature="0"
         id="path56"
         d="m -646.46849,-16.425951 -192.69692,191.827131 192.69692,191.70269 192.6969,-191.70269 z"
         style="font-size:8px;letter-spacing:0.60000002;word-spacing:0;fill:#ffffff;fill-rule:nonzero;stroke:none" /><path
         inkscape:connector-curvature="0"
         id="path96"
         d="m -646.46874,1.437277 -20.91291,20.788532 V 154.67488 h -38.96266 V 61.064244 l -40.82953,40.581216 v 53.02942 h -53.27792 l -20.78835,20.66408 20.29043,20.16612 h 53.77584 v 53.52737 l 40.82953,40.58118 v -94.10855 h 38.96266 v 132.94703 l 20.91291,20.78853 19.79236,-19.6682 V 21.105437 Z m 58.13257,57.884222 V 291.35638 l 40.70565,-40.45673 V 99.778228 Z m 78.79681,78.423811 v 75.18726 l 37.84248,-37.59361 z"
         style="font-size:8px;letter-spacing:0.60000002;word-spacing:0;fill:#ce0f25;fill-opacity:1;fill-rule:nonzero;stroke:none" /></g></g></svg>